<?xml version="1.0" encoding="UTF-8" standalone="no"?>
<!-- Created with Inkscape (http://www.inkscape.org/) -->

<svg
   xmlns:dc="http://purl.org/dc/elements/1.1/"
   xmlns:cc="http://creativecommons.org/ns#"
   xmlns:rdf="http://www.w3.org/1999/02/22-rdf-syntax-ns#"
   xmlns:svg="http://www.w3.org/2000/svg"
   xmlns="http://www.w3.org/2000/svg"
   xmlns:sodipodi="http://sodipodi.sourceforge.net/DTD/sodipodi-0.dtd"
   xmlns:inkscape="http://www.inkscape.org/namespaces/inkscape"
   width="210mm"
   height="297mm"
   viewBox="0 0 744.09448819 1052.3622047"
   id="svg2"
   version="1.1"
   inkscape:version="0.91 r13725"
   sodipodi:docname="glasses.svg">
  <defs
     id="defs4" />
  <sodipodi:namedview
     id="base"
     pagecolor="#ffffff"
     bordercolor="#666666"
     borderopacity="1.0"
     inkscape:pageopacity="0.0"
     inkscape:pageshadow="2"
     inkscape:zoom="0.7"
     inkscape:cx="160.48081"
     inkscape:cy="753.24505"
     inkscape:document-units="px"
     inkscape:current-layer="g4808"
     showgrid="false"
     inkscape:window-width="1920"
     inkscape:window-height="1017"
     inkscape:window-x="1358"
     inkscape:window-y="-8"
     inkscape:window-maximized="1" />
  <metadata
     id="metadata7">
    <rdf:RDF>
      <cc:Work
         rdf:about="">
        <dc:format>image/svg+xml</dc:format>
        <dc:type
           rdf:resource="http://purl.org/dc/dcmitype/StillImage" />
        <dc:title />
      </cc:Work>
    </rdf:RDF>
  </metadata>
  <g
     inkscape:label="Capa 1"
     inkscape:groupmode="layer"
     id="layer1">
    <g
       id="g4150"
       transform="matrix(0.125,0,0,-0.125,-402.85714,855.08704)"
       style="fill:#000000;stroke:none">
      <g
         id="layer1-9"
         inkscape:label="Capa 1"
         transform="matrix(8,0,0,-8,3410.8089,6386.0176)">
        <g
           style="fill:#000000;stroke:none"
           transform="matrix(0.125,0,0,-0.125,-602.26227,769.14531)"
           id="g4210">
          <g
             id="g4195"
             transform="matrix(8,0,0,-8,4611.1835,5224.7875)">
            <g
               id="g4808"
               externalResourcesRequired="false">
              <g
                 id="g4271"
                 transform="translate(73.510182,22.857143)"
                 inkscape:export-xdpi="90"
                 inkscape:export-ydpi="90">
                <path
                   inkscape:export-ydpi="90"
                   inkscape:export-xdpi="90"
                   inkscape:connector-curvature="0"
                   id="path4333-4"
                   d="m 287.17079,-81.471979 19.26575,-11.304637 30.1551,-4.037373 31.83038,6.459794 7.11995,11.708376 -7.53877,22.609282 -12.56462,21.398074 -27.22336,4.441113 -23.45396,-8.478481 -11.72698,-19.783127 z"
                   style="fill:#00979e;fill-opacity:1;fill-rule:evenodd;stroke:#000000;stroke-width:0.57569379px;stroke-linecap:butt;stroke-linejoin:miter;stroke-opacity:1" />
                <path
                   inkscape:export-ydpi="90"
                   inkscape:export-xdpi="90"
                   inkscape:connector-curvature="0"
                   id="path4333"
                   d="m 265.17433,-80.46031 -19.26576,-11.30464 -30.1551,-4.037373 -31.83039,6.459799 -7.11995,11.708375 7.53878,22.609281 12.56462,21.398069 27.22335,4.441112 23.45397,-8.47848 11.72698,-19.783121 z"
                   style="fill:#00979e;fill-opacity:1;fill-rule:evenodd;stroke:#000000;stroke-width:0.57569379px;stroke-linecap:butt;stroke-linejoin:miter;stroke-opacity:1" />
                <path
                   inkscape:export-ydpi="90"
                   inkscape:export-xdpi="90"
                   style="fill:#0000ff;fill-opacity:1;stroke:#000000;stroke-width:2.87846899;stroke-miterlimit:4;stroke-dasharray:none"
                   inkscape:connector-curvature="0"
                   id="path2830-4"
                   d="m 338.77172,-97.575861 c -17.15657,0.110531 -33.68997,5.280217 -50.52983,7.347321 -7.02859,0.862768 -14.27244,1.074436 -21.31281,0.272125 -9.3604,-1.066706 -18.42315,-3.900395 -27.77731,-5.170341 -8.35959,-1.134913 -16.82433,-2.319741 -25.23669,-2.367469 -14.70081,-0.08341 -28.91944,4.353542 -43.33144,6.748656 0,4.064163 -0.8562,9.280424 1.29853,12.136688 2.22249,2.946069 5.97176,5.640553 6.94434,9.633137 2.30638,9.468343 5.5807,18.749905 9.7672,27.647726 2.03451,4.324002 5.87462,7.338786 10.1624,9.415437 10.32544,5.000755 22.54668,5.736105 33.8748,4.163466 16.13165,-2.239489 24.88299,-13.90758 31.55996,-27.239499 2.49927,-5.419456 2.77802,-11.673941 6.06924,-16.62673 1.95486,-2.941846 6.49448,-1.703581 9.73891,-1.714371 4.83194,-0.016 5.99401,5.191068 7.00081,8.653516 3.56339,12.253795 9.50486,25.25446 21.31292,31.675123 17.63321,9.588127 45.41257,7.794589 56.85311,-9.49708 4.47735,-6.767314 5.71417,-14.978598 7.96054,-22.640623 1.36758,-4.664493 2.58906,-10.225365 7.45247,-12.789811 1.96276,-1.034934 0.58539,-5.164695 0.87509,-7.565003 0.31565,-2.615657 0.92426,-4.928692 -2.93583,-5.442465 -6.73317,-0.896204 -13.26437,-3.621945 -20.15546,-4.544449 -6.53035,-0.874221 -12.92853,-2.138267 -19.59095,-2.095354 z m -113.42389,4.353971 c 4.87001,-0.0299 9.71957,0.31376 14.45322,1.278973 28.20368,5.750804 28.77398,16.952335 17.1632,40.110943 -9.46105,18.870747 -29.0596,23.599026 -48.80787,19.07579 -9.10336,-2.084999 -15.32831,-8.210753 -18.26415,-16.599486 -3.09853,-8.853636 -5.44239,-18.260589 -4.91183,-27.566055 0.71054,-12.461326 15.33202,-14.212633 25.80127,-15.347738 4.80405,-0.520878 9.69609,-0.922589 14.56616,-0.952427 z m 102.97922,0 c 4.87006,0.02984 9.7621,0.431549 14.56615,0.952427 10.46925,1.135105 25.09076,2.886412 25.80122,15.347738 0.53061,9.305466 -1.81325,18.712419 -4.91178,27.566055 -2.93584,8.388733 -9.16085,14.514487 -18.2642,16.599486 -19.74822,4.523236 -39.34683,-0.205043 -48.80782,-19.07579 -11.61078,-23.158608 -11.04049,-34.360105 17.1632,-40.110943 4.7337,-0.965213 9.58316,-1.308817 14.45323,-1.278973 z" />
              </g>
              <g
                 id="g4276"
                 transform="translate(70.997262,23.451442)"
                 inkscape:export-xdpi="90"
                 inkscape:export-ydpi="90">
                <path
                   inkscape:export-ydpi="90"
                   inkscape:export-xdpi="90"
                   inkscape:connector-curvature="0"
                   id="path4333-4-8"
                   d="M 289.68371,13.002525 308.94947,1.6978895 339.10456,-2.3394838 370.93495,4.1203101 378.0549,15.828685 370.51612,38.437966 357.9515,59.83604 330.72814,64.277153 307.27418,55.798673 295.5472,36.015546 Z"
                   style="opacity:0.57300002;fill:#00979e;fill-opacity:1;fill-rule:evenodd;stroke:#000000;stroke-width:0.57569379px;stroke-linecap:butt;stroke-linejoin:miter;stroke-opacity:1" />
                <path
                   inkscape:export-ydpi="90"
                   inkscape:export-xdpi="90"
                   inkscape:connector-curvature="0"
                   id="path4333-7"
                   d="m 267.68725,14.014194 -19.26576,-11.3046409 -30.1551,-4.0373733 -31.83038,6.4597996 -7.11995,11.7083746 7.53877,22.609282 12.56462,21.398068 27.22336,4.441113 23.45396,-8.478481 11.72699,-19.783121 z"
                   style="opacity:0.575;fill:#00979e;fill-opacity:1;fill-rule:evenodd;stroke:#000000;stroke-width:0.57569379px;stroke-linecap:butt;stroke-linejoin:miter;stroke-opacity:1" />
                <path
                   inkscape:export-ydpi="90"
                   inkscape:export-xdpi="90"
                   style="fill:#0000ff;fill-opacity:1;stroke:#000000;stroke-width:2.87846899;stroke-miterlimit:4;stroke-dasharray:none"
                   inkscape:connector-curvature="0"
                   id="path2830-4-0"
                   d="M 341.28464,-3.1013601 C 324.12808,-2.990829 307.59467,2.1788568 290.75481,4.2459612 283.72623,5.1087314 276.48237,5.3203995 269.442,4.5180865 260.0816,3.4513806 251.01885,0.61769152 241.66469,-0.65225487 233.3051,-1.7871673 224.84036,-2.9719954 216.428,-3.0197236 c -14.70081,-0.083411 -28.91944,4.3535415 -43.33144,6.7486557 0,4.0641654 -0.8562,9.2804259 1.29853,12.1366909 2.22249,2.946068 5.97176,5.640552 6.94434,9.633136 2.30638,9.468344 5.58071,18.749906 9.76721,27.647726 2.0345,4.324003 5.87462,7.338787 10.16239,9.415438 10.32544,5.000755 22.54668,5.736105 33.8748,4.163465 16.13165,-2.239489 24.883,-13.907579 31.55996,-27.239498 2.49927,-5.419456 2.77802,-11.673941 6.06924,-16.62673 1.95486,-2.941847 6.49449,-1.703581 9.73891,-1.714372 4.83194,-0.016 5.99401,5.191069 7.00081,8.653516 3.56339,12.253796 9.50486,25.25446 21.31292,31.675123 17.63321,9.588127 45.41257,7.79459 56.85311,-9.497079 4.47735,-6.767314 5.71417,-14.978599 7.96054,-22.640624 1.36758,-4.664493 2.58906,-10.225364 7.45247,-12.789811 1.96276,-1.034934 0.58539,-5.164694 0.87509,-7.565003 0.31565,-2.6156565 0.92426,-4.9286934 -2.93582,-5.4424667 -6.73318,-0.8962037 -13.26438,-3.62194474 -20.15547,-4.5444486 -6.53034,-0.8742218 -12.92853,-2.1382672 -19.59095,-2.0953548 z M 227.86075,1.252611 c 4.87001,-0.029901 9.71957,0.3137603 14.45322,1.2789732 28.20369,5.7508064 28.77399,16.9523378 17.16321,40.1109458 -9.46106,18.870746 -29.05961,23.599025 -48.80787,19.07579 -9.10337,-2.085 -15.32831,-8.210753 -18.26416,-16.599486 -3.09853,-8.853637 -5.44239,-18.26059 -4.91183,-27.566056 C 188.20387,5.0914522 202.82534,3.3401429 213.29459,2.2050383 218.09864,1.68416 222.99068,1.2824496 227.86075,1.252611 Z m 102.97922,0 c 4.87006,0.029844 9.76211,0.431549 14.56615,0.9524273 10.46926,1.1351046 25.09076,2.8864139 25.80123,15.3477397 0.53061,9.305466 -1.81325,18.712419 -4.91179,27.566056 -2.93584,8.388733 -9.16085,14.514486 -18.2642,16.599486 -19.74821,4.523235 -39.34682,-0.205044 -48.80782,-19.07579 -11.61078,-23.158608 -11.04049,-34.3601055 17.1632,-40.1109458 4.7337,-0.9652129 9.58316,-1.3088174 14.45323,-1.2789732 z" />
              </g>
              <g
                 id="g4281"
                 transform="translate(63.039662,24.449428)"
                 inkscape:export-xdpi="90"
                 inkscape:export-ydpi="90">
                <path
                   inkscape:export-ydpi="90"
                   inkscape:export-xdpi="90"
                   inkscape:connector-curvature="0"
                   id="path4333-4-8-0-2"
                   d="m 294.62478,108.35442 19.85076,-11.260703 31.07074,-4.021688 32.79691,6.434692 7.33614,11.662879 -7.76769,22.52143 -12.94614,21.31493 -28.04998,4.42385 -24.16613,-8.44553 -12.08307,-19.70626 z"
                   style="opacity:0.73299997;fill:#42669e;fill-opacity:1;fill-rule:evenodd;stroke:#000000;stroke-width:0.58323228px;stroke-linecap:butt;stroke-linejoin:miter;stroke-opacity:1" />
                <path
                   inkscape:export-ydpi="90"
                   inkscape:export-xdpi="90"
                   inkscape:connector-curvature="0"
                   id="path4333-7-1-8"
                   d="m 279.28125,106.73948 -19.85076,-11.26071 -31.07075,-4.021688 -32.7969,6.434698 -7.33615,11.66288 7.76769,22.52143 12.94614,21.31492 28.04998,4.42386 24.16614,-8.44554 12.08307,-19.70625 z"
                   style="opacity:0.73000004;fill:#42669e;fill-opacity:1;fill-rule:evenodd;stroke:#000000;stroke-width:0.58323228px;stroke-linecap:butt;stroke-linejoin:miter;stroke-opacity:1" />
                <path
                   inkscape:export-ydpi="90"
                   inkscape:export-xdpi="90"
                   style="fill:#4d5157;fill-opacity:1;stroke:#000000;stroke-width:2.87846899;stroke-miterlimit:4;stroke-dasharray:none"
                   inkscape:connector-curvature="0"
                   id="path2830-4-0-9"
                   d="m 349.24224,90.9694 c -17.15657,0.110531 -33.68997,5.280217 -50.52983,7.347321 -7.02859,0.86277 -14.27244,1.074438 -21.31282,0.272125 -9.36039,-1.066705 -18.42314,-3.900395 -27.7773,-5.170341 -8.35959,-1.134912 -16.82433,-2.31974 -25.23669,-2.367469 -14.70081,-0.08341 -28.91944,4.353542 -43.33144,6.748656 0,4.064168 -0.8562,9.280428 1.29853,12.136688 2.22249,2.94607 5.97176,5.64055 6.94434,9.63314 2.30638,9.46835 5.5807,18.74991 9.7672,27.64773 2.0345,4.324 5.87462,7.33879 10.1624,9.41544 10.32544,5.00075 22.54668,5.7361 33.8748,4.16346 16.13165,-2.23949 24.88299,-13.90758 31.55996,-27.23949 2.49927,-5.41946 2.77802,-11.67395 6.06924,-16.62673 1.95486,-2.94186 6.49448,-1.70359 9.73891,-1.71438 4.83194,-0.016 5.99401,5.19107 7.00081,8.65352 3.56338,12.2538 9.50486,25.25446 21.31292,31.67512 17.63321,9.58813 45.41257,7.79459 56.85311,-9.49708 4.47735,-6.76731 5.71417,-14.97859 7.96054,-22.64062 1.36758,-4.66449 2.58906,-10.22537 7.45247,-12.78982 1.96276,-1.03493 0.58539,-5.16469 0.87509,-7.565 0.31565,-2.61566 0.92426,-4.928693 -2.93583,-5.442467 C 382.25548,96.713 375.72427,93.987258 368.83319,93.064755 362.30284,92.190533 355.90466,90.926487 349.24224,90.9694 Z m -113.4239,4.353971 c 4.87002,-0.0299 9.71958,0.31376 14.45323,1.278973 28.20368,5.750806 28.77398,16.952336 17.1632,40.110956 -9.46105,18.87074 -29.0596,23.59902 -48.80787,19.07579 -9.10337,-2.085 -15.32831,-8.21076 -18.26415,-16.59949 -3.09853,-8.85364 -5.44239,-18.26059 -4.91183,-27.56606 0.71054,-12.461328 15.33202,-14.212637 25.80127,-15.347742 4.80405,-0.520878 9.69609,-0.922588 14.56615,-0.952427 z m 102.97923,0 c 4.87006,0.02984 9.7621,0.431549 14.56615,0.952427 10.46925,1.135105 25.09076,2.886414 25.80122,15.347742 0.53061,9.30547 -1.81325,18.71242 -4.91178,27.56606 -2.93584,8.38873 -9.16085,14.51449 -18.2642,16.59949 -19.74822,4.52323 -39.34683,-0.20505 -48.80782,-19.07579 -11.61078,-23.15862 -11.04049,-34.36012 17.1632,-40.110956 4.7337,-0.965213 9.58316,-1.308817 14.45323,-1.278973 z" />
              </g>
              <g
                 id="g4286"
                 transform="translate(68.632442,16.290981)"
                 inkscape:export-xdpi="90"
                 inkscape:export-ydpi="90">
                <path
                   inkscape:export-ydpi="90"
                   inkscape:export-xdpi="90"
                   inkscape:connector-curvature="0"
                   id="path4333-4-8-0-2-3"
                   d="m 289.032,211.58167 19.85076,-11.2607 31.07074,-4.02169 32.79691,6.43469 7.33614,11.66288 -7.76769,22.52143 -12.94614,21.31493 -28.04998,4.42385 -24.16613,-8.44553 -12.08307,-19.70626 z"
                   style="opacity:0.73299997;fill:#c5c3c5;fill-opacity:1;fill-rule:evenodd;stroke:#000000;stroke-width:0.58323228px;stroke-linecap:butt;stroke-linejoin:miter;stroke-opacity:1" />
                <path
                   inkscape:export-ydpi="90"
                   inkscape:export-xdpi="90"
                   inkscape:connector-curvature="0"
                   id="path4333-7-1-8-7"
                   d="m 273.68847,209.96673 -19.85076,-11.26071 -31.07075,-4.02169 -32.7969,6.4347 -7.33615,11.66288 7.76769,22.52143 12.94614,21.31492 28.04998,4.42386 24.16614,-8.44554 12.08307,-19.70625 z"
                   style="opacity:0.73000004;fill:#c6c5c6;fill-opacity:1;fill-rule:evenodd;stroke:#000000;stroke-width:0.58323228px;stroke-linecap:butt;stroke-linejoin:miter;stroke-opacity:1" />
                <path
                   inkscape:export-ydpi="90"
                   inkscape:export-xdpi="90"
                   style="fill:#babdbe;fill-opacity:1;stroke:#000000;stroke-width:2.87846899;stroke-miterlimit:4;stroke-dasharray:none"
                   inkscape:connector-curvature="0"
                   id="path2830-4-0-9-6"
                   d="m 343.64946,194.19665 c -17.15657,0.11053 -33.68997,5.28022 -50.52983,7.34732 -7.02859,0.86277 -14.27244,1.07444 -21.31282,0.27212 -9.36039,-1.0667 -18.42314,-3.90039 -27.7773,-5.17034 -8.35959,-1.13491 -16.82433,-2.31974 -25.23669,-2.36747 -14.70081,-0.0834 -28.91944,4.35355 -43.33144,6.74866 0,4.06417 -0.8562,9.28043 1.29853,12.13669 2.22249,2.94607 5.97176,5.64055 6.94434,9.63314 2.30638,9.46835 5.5807,18.74991 9.7672,27.64773 2.0345,4.324 5.87462,7.33879 10.1624,9.41544 10.32544,5.00075 22.54668,5.7361 33.8748,4.16346 16.13165,-2.23949 24.88299,-13.90758 31.55996,-27.23949 2.49927,-5.41946 2.77802,-11.67395 6.06924,-16.62673 1.95486,-2.94186 6.49448,-1.70359 9.73891,-1.71438 4.83194,-0.016 5.99401,5.19107 7.00081,8.65352 3.56338,12.2538 9.50486,25.25446 21.31292,31.67512 17.63321,9.58813 45.41257,7.79459 56.85311,-9.49708 4.47735,-6.76731 5.71417,-14.97859 7.96054,-22.64062 1.36758,-4.66449 2.58906,-10.22537 7.45247,-12.78982 1.96276,-1.03493 0.58539,-5.16469 0.87509,-7.565 0.31565,-2.61566 0.92426,-4.92869 -2.93583,-5.44247 -6.73317,-0.8962 -13.26438,-3.62194 -20.15546,-4.54445 -6.53035,-0.87422 -12.92853,-2.13826 -19.59095,-2.09535 z m -113.4239,4.35397 c 4.87002,-0.0299 9.71958,0.31376 14.45323,1.27897 28.20368,5.75081 28.77398,16.95234 17.1632,40.11096 -9.46105,18.87074 -29.0596,23.59902 -48.80787,19.07579 -9.10337,-2.085 -15.32831,-8.21076 -18.26415,-16.59949 -3.09853,-8.85364 -5.44239,-18.26059 -4.91183,-27.56606 0.71054,-12.46133 15.33202,-14.21264 25.80127,-15.34774 4.80405,-0.52088 9.69609,-0.92259 14.56615,-0.95243 z m 102.97923,0 c 4.87006,0.0298 9.7621,0.43155 14.56615,0.95243 10.46925,1.1351 25.09076,2.88641 25.80122,15.34774 0.53061,9.30547 -1.81325,18.71242 -4.91178,27.56606 -2.93584,8.38873 -9.16085,14.51449 -18.2642,16.59949 -19.74822,4.52323 -39.34683,-0.20505 -48.80782,-19.07579 -11.61078,-23.15862 -11.04049,-34.36012 17.1632,-40.11096 4.7337,-0.96521 9.58316,-1.30881 14.45323,-1.27897 z" />
              </g>
              <g
                 id="g4291"
                 transform="translate(62.918157,16.359767)"
                 inkscape:export-xdpi="90"
                 inkscape:export-ydpi="90">
                <path
                   inkscape:export-ydpi="90"
                   inkscape:export-xdpi="90"
                   inkscape:connector-curvature="0"
                   id="path4333-4-8-0-2-3-9"
                   d="m 296.1378,306.5819 19.85076,-11.2607 31.07074,-4.02169 32.79691,6.43469 7.33614,11.66288 -7.76769,22.52143 -12.94614,21.31493 -28.04998,4.42385 -24.16613,-8.44553 -12.08307,-19.70626 z"
                   style="opacity:0.93800001;fill:#cccecf;fill-opacity:1;fill-rule:evenodd;stroke:#000000;stroke-width:0.58323228px;stroke-linecap:butt;stroke-linejoin:miter;stroke-opacity:1" />
                <path
                   inkscape:export-ydpi="90"
                   inkscape:export-xdpi="90"
                   inkscape:connector-curvature="0"
                   id="path4333-7-1-8-7-5"
                   d="m 279.40276,304.96673 -19.85077,-11.26071 -31.07075,-4.02169 -32.7969,6.4347 -7.33615,11.66288 7.76769,22.52143 12.94614,21.31492 28.04998,4.42386 24.16614,-8.44554 12.08307,-19.70625 z"
                   style="opacity:0.92099998;fill:#c6c5c6;fill-opacity:1;fill-rule:evenodd;stroke:#000000;stroke-width:0.58323228px;stroke-linecap:butt;stroke-linejoin:miter;stroke-opacity:1" />
                <path
                   inkscape:export-ydpi="90"
                   inkscape:export-xdpi="90"
                   style="fill:#00ff08;fill-opacity:1;stroke:#00ff00;stroke-width:2.87846899;stroke-miterlimit:4;stroke-dasharray:none;stroke-opacity:1"
                   inkscape:connector-curvature="0"
                   id="path2830-4-0-9-6-8"
                   d="m 349.36375,289.19665 c -17.15657,0.11053 -33.68997,5.28022 -50.52983,7.34732 -7.02859,0.86277 -14.27244,1.07444 -21.31282,0.27212 -9.3604,-1.0667 -18.42315,-3.90039 -27.77731,-5.17034 -8.35959,-1.13491 -16.82433,-2.31974 -25.23669,-2.36747 -14.70081,-0.0834 -28.91944,4.35355 -43.33144,6.74866 0,4.06417 -0.8562,9.28043 1.29853,12.13669 2.22249,2.94607 5.97176,5.64055 6.94434,9.63314 2.30638,9.46835 5.5807,18.74991 9.7672,27.64773 2.0345,4.324 5.87462,7.33879 10.1624,9.41544 10.32544,5.00075 22.54668,5.7361 33.8748,4.16346 16.13165,-2.23949 24.88299,-13.90758 31.55996,-27.23949 2.49928,-5.41946 2.77803,-11.67395 6.06925,-16.62673 1.95486,-2.94186 6.49448,-1.70359 9.73891,-1.71438 4.83194,-0.016 5.99401,5.19107 7.00081,8.65352 3.56338,12.2538 9.50486,25.25446 21.31292,31.67512 17.63321,9.58813 45.41257,7.79459 56.85311,-9.49708 4.47735,-6.76731 5.71417,-14.97859 7.96054,-22.64062 1.36758,-4.66449 2.58906,-10.22537 7.45247,-12.78982 1.96276,-1.03493 0.58539,-5.16469 0.87509,-7.565 0.31565,-2.61566 0.92426,-4.92869 -2.93583,-5.44247 -6.73317,-0.8962 -13.26438,-3.62194 -20.15546,-4.54445 -6.53035,-0.87422 -12.92853,-2.13826 -19.59095,-2.09535 z m -113.42391,4.35397 c 4.87002,-0.0299 9.71958,0.31376 14.45323,1.27897 28.20369,5.75081 28.77399,16.95234 17.1632,40.11096 -9.46105,18.87074 -29.0596,23.59902 -48.80787,19.07579 -9.10337,-2.085 -15.32831,-8.21076 -18.26415,-16.59949 -3.09853,-8.85364 -5.44239,-18.26059 -4.91183,-27.56606 0.71054,-12.46133 15.33202,-14.21264 25.80127,-15.34774 4.80405,-0.52088 9.69609,-0.92259 14.56615,-0.95243 z m 102.97924,0 c 4.87006,0.0298 9.7621,0.43155 14.56615,0.95243 10.46925,1.1351 25.09076,2.88641 25.80122,15.34774 0.53061,9.30547 -1.81325,18.71242 -4.91178,27.56606 -2.93584,8.38873 -9.16085,14.51449 -18.2642,16.59949 -19.74822,4.52323 -39.34683,-0.20505 -48.80782,-19.07579 -11.61078,-23.15862 -11.04049,-34.36012 17.1632,-40.11096 4.7337,-0.96521 9.58316,-1.30881 14.45323,-1.27897 z" />
              </g>
              <g
                 id="g4296"
                 transform="translate(57.918158,22.857143)"
                 inkscape:export-xdpi="90"
                 inkscape:export-ydpi="90">
                <path
                   inkscape:export-ydpi="90"
                   inkscape:export-xdpi="90"
                   inkscape:connector-curvature="0"
                   id="path4333-4-8-0-2-3-9-3"
                   d="m 301.1378,395.15333 19.85076,-11.2607 31.07074,-4.02169 32.79691,6.43469 7.33614,11.66288 -7.76769,22.52143 -12.94614,21.31493 -28.04998,4.42385 -24.16613,-8.44553 -12.08307,-19.70626 z"
                   style="opacity:1;fill:#3e3e3d;fill-opacity:1;fill-rule:evenodd;stroke:#000000;stroke-width:0.58323228px;stroke-linecap:butt;stroke-linejoin:miter;stroke-opacity:1" />
                <path
                   inkscape:export-ydpi="90"
                   inkscape:export-xdpi="90"
                   inkscape:connector-curvature="0"
                   id="path4333-7-1-8-7-5-0"
                   d="m 284.40276,393.53816 -19.85077,-11.26071 -31.07075,-4.02169 -32.7969,6.4347 -7.33615,11.66288 7.76769,22.52143 12.94614,21.31492 28.04998,4.42386 24.16614,-8.44554 12.08307,-19.70625 z"
                   style="opacity:1;fill:#434241;fill-opacity:1;fill-rule:evenodd;stroke:#000000;stroke-width:0.58323228px;stroke-linecap:butt;stroke-linejoin:miter;stroke-opacity:1" />
                <path
                   inkscape:export-ydpi="90"
                   inkscape:export-xdpi="90"
                   style="fill:#ff00ff;fill-opacity:1;stroke:#ff00ff;stroke-width:2.87800002;stroke-miterlimit:4;stroke-dasharray:none;stroke-opacity:1"
                   inkscape:connector-curvature="0"
                   id="path2830-4-0-9-6-8-8"
                   d="m 354.36375,377.76808 c -17.15657,0.11053 -33.68997,5.28022 -50.52983,7.34732 -7.02859,0.86277 -14.27244,1.07444 -21.31282,0.27212 -9.3604,-1.0667 -18.42315,-3.90039 -27.77731,-5.17034 -8.35959,-1.13491 -16.82433,-2.31974 -25.23669,-2.36747 -14.70081,-0.0834 -28.91944,4.35355 -43.33144,6.74866 0,4.06417 -0.8562,9.28043 1.29853,12.13669 2.22249,2.94607 5.97176,5.64055 6.94434,9.63314 2.30638,9.46835 5.5807,18.74991 9.7672,27.64773 2.0345,4.324 5.87462,7.33879 10.1624,9.41544 10.32544,5.00075 22.54668,5.7361 33.8748,4.16346 16.13165,-2.23949 24.88299,-13.90758 31.55996,-27.23949 2.49928,-5.41946 2.77803,-11.67395 6.06925,-16.62673 1.95486,-2.94186 6.49448,-1.70359 9.73891,-1.71438 4.83194,-0.016 5.99401,5.19107 7.00081,8.65352 3.56338,12.2538 9.50486,25.25446 21.31292,31.67512 17.63321,9.58812 45.41257,7.79458 56.85311,-9.49708 4.47735,-6.76731 5.71417,-14.97859 7.96054,-22.64062 1.36758,-4.66449 2.58906,-10.22537 7.45247,-12.78982 1.96276,-1.03493 0.58539,-5.16469 0.87509,-7.565 0.31565,-2.61566 0.92426,-4.92869 -2.93583,-5.44247 -6.73317,-0.8962 -13.26438,-3.62194 -20.15546,-4.54445 -6.53035,-0.87422 -12.92853,-2.13826 -19.59095,-2.09535 z m -113.42391,4.35397 c 4.87002,-0.0299 9.71958,0.31376 14.45323,1.27897 28.20369,5.75081 28.77399,16.95234 17.1632,40.11096 -9.46105,18.87074 -29.0596,23.59902 -48.80787,19.07579 -9.10337,-2.085 -15.32831,-8.21076 -18.26415,-16.59949 -3.09853,-8.85364 -5.44239,-18.26059 -4.91183,-27.56606 0.71054,-12.46133 15.33202,-14.21264 25.80127,-15.34774 4.80405,-0.52088 9.69609,-0.92259 14.56615,-0.95243 z m 102.97924,0 c 4.87006,0.0298 9.7621,0.43155 14.56615,0.95243 10.46925,1.1351 25.09076,2.88641 25.80122,15.34774 0.53061,9.30547 -1.81325,18.71242 -4.91178,27.56606 -2.93584,8.38873 -9.16085,14.51449 -18.2642,16.59949 -19.74822,4.52323 -39.34683,-0.20505 -48.80782,-19.07579 -11.61078,-23.15862 -11.04049,-34.36012 17.1632,-40.11096 4.7337,-0.96521 9.58316,-1.30881 14.45323,-1.27897 z" />
              </g>
            </g>
            <title
               id="title4201">Layer 1</title>
          </g>
        </g>
      </g>
    </g>
  </g>
</svg>
